# xmcd
#
# Track frame offsets: 
#        150
#        17874
#        31978
#        45523
#        61608
#        79146
#        95622
#        116240
#        133669
#        147567
#        165383
#
# Disc length: 2456 seconds
#
# Revision: 0
# Processed by: cddbd v1.5.2PL0 Copyright (c) Steve Scherf et al.
# Submitted via: ExactAudioCopy v1.5
#
DISCID=9009960b
DTITLE=Wes Mackey - Full Moon In Lamanon
DYEAR=2007
DGENRE=Blues
TTITLE0=Full Moon In Lamanon
TTITLE1=Who Do Da Voodoo?
TTITLE2=Bluesman
TTITLE3=Baby Done Gone
TTITLE4=Second Chance
TTITLE5=Wham Bam
TTITLE6=Mr. Blues
TTITLE7=Angelgirl
TTITLE8=Born In Carolina
TTITLE9=Miss You
TTITLE10=Untitiled
EXTD=
EXTT0=
EXTT1=
EXTT2=
EXTT3=
EXTT4=
EXTT5=
EXTT6=
EXTT7=
EXTT8=
EXTT9=
EXTT10=
PLAYORDER=
